<svg width="20" height="21" viewBox="0 0 20 21" fill="none" xmlns="http://www.w3.org/2000/svg">
<path d="M20 10.0493C20 15.5722 15.5229 20.0493 10 20.0493C4.47714 20.0493 0 15.5722 0 10.0493C0 4.52645 4.47714 0.0493164 10 0.0493164C15.5229 0.0493164 20 4.52645 20 10.0493ZM8.84331 15.3442L16.2627 7.92488C16.5146 7.67295 16.5146 7.26444 16.2627 7.0125L15.3503 6.10012C15.0983 5.84815 14.6898 5.84815 14.4379 6.10012L8.3871 12.1508L5.56214 9.32589C5.3102 9.07395 4.90169 9.07395 4.64972 9.32589L3.73734 10.2383C3.4854 10.4902 3.4854 10.8987 3.73734 11.1506L7.93089 15.3442C8.18286 15.5962 8.59133 15.5962 8.84331 15.3442Z" fill="white"/>
</svg>
